<?xml version="1.0" encoding="utf-8"?>
<svg viewBox="0 0 500 500" xmlns="http://www.w3.org/2000/svg">
  <path d="M 87.5 125 C 87.5 111.172 98.672 100 112.5 100 L 125 100 C 138.828 100 150 111.172 150 125 L 150 225 L 150 275 L 150 375 C 150 388.828 138.828 400 125 400 L 112.5 400 C 98.672 400 87.5 388.828 87.5 375 L 87.5 350 L 50 350 C 36.172 350 25 338.828 25 325 L 25 275 C 11.172 275 0 263.828 0 250 C 0 236.172 11.172 225 25 225 L 25 175 C 25 161.172 36.172 150 50 150 L 87.5 150 L 87.5 125 Z M 412.5 125 L 412.5 150 L 450 150 C 463.828 150 475 161.172 475 175 L 475 225 C 488.828 225 500 236.172 500 250 C 500 263.828 488.828 275 475 275 L 475 325 C 475 338.828 463.828 350 450 350 L 412.5 350 L 412.5 375 C 412.5 388.828 401.328 400 387.5 400 L 375 400 C 361.172 400 350 388.828 350 375 L 350 275 L 350 225 L 350 125 C 350 111.172 361.172 100 375 100 L 387.5 100 C 401.328 100 412.5 111.172 412.5 125 Z M 325 225 L 325 275 L 175 275 L 175 225 L 325 225 Z" style="fill: rgb(255, 255, 255);"/>
</svg>